PathFileType	4	(X/Y/Z)	OpenSim_Sub07_EMGBaseline_Accel.trc
DataRate	CameraRate	NumFrames	NumMarkers	Units	OrigDataRate	OrigDataStartFrame	OrigNumFrames
100	100	17	8	m	100	854	6828
Frame#	Time	torso_imu_offset_imu	pelvis_imu_offset_imu	tibia_r_imu_offset_imu	femur_r_imu_offset_imu	tibia_l_imu_offset_imu	femur_l_imu_offset_imu	toes_r_imu_offset_imu	toes_l_imu_offset_imu
				X1	Y1	Z1	X2	Y2	Z2	X3	Y3	Z3	X4	Y4	Z4	X5	Y5	Z5	X6	Y6	Z6	X7	Y7	Z7	X8		Y8	Z8	

854	8.53000000	-9.38855900	0.83924200	6.00166800	9.66570600	-1.52607600	3.97403200	7.60771200	10.13848900	-2.69320800	8.85303900	5.33157300	-0.62872500	14.37287400	-1.18991000	-0.84728300	9.94912300	0.52100200	0.15478700	5.62526300	1.61735100	8.37157700	12.41755700	3.03899600	12.75267600
855	8.54000000	-9.33933900	0.92395800	6.03523500	9.68026000	-0.94715900	4.18015100	9.14854700	9.42344600	-1.43757400	9.42783300	4.62820700	-0.37936500	14.20572100	-2.86807100	-1.21479900	10.19076000	-0.38817200	-0.43711700	5.18818300	1.92150400	8.43388100	12.26895400	7.60947800	14.99143200
856	8.55000000	-9.16034200	1.00962900	5.84731500	9.83685800	-0.49874900	4.20694900	9.72461300	6.01837100	-1.10125500	10.28416800	2.91443700	-0.33301300	13.15494800	-3.98424700	-0.76610000	10.57764500	-1.03025200	-1.02623300	5.61748000	1.83480800	8.35698100	14.58589200	6.25293500	14.21871000
857	8.56000000	-9.03061700	1.04086800	5.73365600	9.85801100	-0.24126000	4.21803500	10.61549800	2.57141600	-1.34708400	10.59817500	1.25096900	-0.27625700	11.44036800	-5.59905900	-0.64555400	11.07035900	-0.95373300	-1.49522700	5.52378100	2.05988300	8.40511800	11.93210600	4.76499700	13.62226900
858	8.57000000	-9.11223600	1.13815300	5.63625300	9.79268800	0.04690200	4.17889200	11.89536500	1.69252700	-0.66736100	11.02051900	0.45779700	-0.05633200	9.54061400	-6.23927300	-0.23062000	11.70935400	-0.45616600	-1.62360400	5.15397000	2.02420000	8.65793600	7.00427900	6.87740700	12.82936200
859	8.58000000	-9.16216200	1.11937400	5.65912400	9.90566700	0.54586100	4.09940400	11.64284000	2.23447200	-0.40390300	11.38952000	-0.51033600	-0.55492200	7.39606000	-6.56418000	0.71307600	12.20239700	0.36474000	-1.37366900	5.22670600	2.35647300	8.70921800	2.72273700	5.92181100	10.00180000
860	8.59000000	-9.21229300	1.04146100	5.68592000	9.83805500	0.97067000	4.04088300	10.48799800	2.68706300	-0.97252500	10.44113100	-1.86017700	-0.46485300	4.88953500	-7.61016200	1.45241400	12.27917200	1.23370300	-0.91598500	5.48353500	2.20363700	8.55939800	-4.65501200	2.04660100	7.04626900
861	8.60000000	-9.11568800	0.93856800	5.71286800	9.66085000	1.38392600	3.80167000	9.65317400	3.73640100	-1.18698700	9.15425500	-2.44069100	-0.17308000	2.54793300	-9.37076500	2.01667500	11.86368100	1.97848300	-0.30326200	4.89952800	2.09948500	8.44496000	20.76274699	-8.40705900	16.76959900
862	8.61000000	-9.04183200	0.79513900	5.62158000	9.43792200	1.64560100	3.52313900	9.18146300	4.84755500	-1.59931600	8.73116800	-1.99889600	-0.07044500	0.43847700	-11.38436900	2.60137600	11.52805500	2.36402400	0.39246500	5.05525900	1.29087700	8.39084700	45.78444900	3.61784200	20.95606300
863	8.62000000	-9.00471400	0.86502700	5.67608900	9.39349200	1.73975800	3.48605800	9.43331400	4.14811000	-2.07767400	8.88568800	-1.19102300	-0.35694000	-1.10844200	-13.57289000	2.61199500	11.56101300	2.19134400	0.70856500	5.20438400	1.17962600	8.64800600	18.24761900	10.47378000	25.84607700
864	8.63000000	-9.25969400	0.99304600	5.77966400	9.33750800	1.71454500	3.30971700	9.84979500	2.29640100	-2.53029400	8.99403700	-0.52711600	-0.88033200	-1.16598900	-14.22712200	1.58518200	12.36802900	1.29394900	0.86831400	5.07614100	0.84621800	8.61939200	10.03048200	7.95894100	12.62724300
865	8.64000000	-9.57234300	1.06068000	5.76070100	9.43607200	1.55054100	3.14734300	10.17539800	0.73604200	-2.61420800	9.14034200	0.27861400	-1.24317500	-0.00962800	-11.53939800	0.81844200	12.75704700	0.79396600	0.48484900	5.22724100	0.47345200	8.69647600	-1.12006100	9.49872500	9.86049900
866	8.65000000	-9.88645200	1.00388400	5.78281000	9.55066300	1.45504300	3.03683100	10.38112500	0.01084500	-2.47500500	9.27471700	1.20825300	-1.14210300	0.93447200	-8.16209200	1.47882400	12.53049600	0.56617900	0.05716300	5.19072600	0.47581200	8.78398600	-5.46085700	8.33955800	7.21868900
867	8.66000000	-9.82828400	0.82987400	5.76325900	9.53090000	1.48256900	2.81276900	10.38569800	0.11602900	-1.99123800	9.41432100	2.01632900	-0.78340700	0.97749000	-5.57436900	2.66953600	11.66545400	0.28744300	0.02887900	5.17284700	0.69109600	8.73418700	-4.99691700	6.06630900	5.43882100
868	8.67000000	-9.62928700	0.60474800	5.84561600	9.60466000	1.47060600	2.71577200	10.21663700	0.90586100	-1.66168700	9.68961900	2.44096100	-0.60879000	0.60484300	-3.43721900	4.42946500	10.69910700	0.45842300	0.09595400	5.13223200	0.80793400	8.70466800	-2.71696500	5.83012000	6.17578600
869	8.68000000	-9.29502100	0.38599900	5.88456200	9.54265000	1.38718400	2.61183600	9.99556400	1.79037000	-1.14695700	9.86066600	2.10474900	-0.49358200	0.31471000	-1.98955100	5.90785300	9.96170100	0.95591700	0.29278200	5.47909800	0.95505200	8.45279200	0.06792400	5.31162100	6.85590700
870	8.69000000	-8.99108900	0.21436800	5.93384700	9.46535000	1.27755400	2.55592000	9.76816500	2.42413700	-1.03318000	9.77839000	1.28094900	-0.51908200	0.18986500	-1.68098900	6.58002600	9.39351400	0.97363900	0.36061000	5.42888000	1.13269500	8.38048000	2.42173400	5.26860100	7.93149400
